<svg xmlns="http://www.w3.org/2000/svg" version="1.1" xmlns:xlink="http://www.w3.org/1999/xlink" xmlns:svgjs="http://svgjs.dev/svgjs" width="1500" height="1500" viewBox="0 0 1500 1500"><rect width="1500" height="1500" fill="#000000"></rect><g transform="matrix(0.6666666666666666,0,0,0.6666666666666666,249.85778443113782,249.85778443113765)"><svg viewBox="0 0 334 334" data-background-color="#fafafa" preserveAspectRatio="xMidYMid meet" height="1500" width="1500" xmlns="http://www.w3.org/2000/svg" xmlns:xlink="http://www.w3.org/1999/xlink"><g id="tight-bounds" transform="matrix(1,0,0,1,0.04749999999998522,0.04750000000001364)"><svg viewBox="0 0 333.90454557049503 333.90454557049503" height="333.90454557049503" width="333.90454557049503"><g><svg></svg></g><g><svg viewBox="0 0 333.90454557049503 333.90454557049503" height="333.90454557049503" width="333.90454557049503"><g><path d="M0 166.952c0-92.205 74.747-166.952 166.952-166.952 92.205 0 166.952 74.747 166.953 166.952 0 92.205-74.747 166.952-166.953 166.953-92.205 0-166.952-74.747-166.952-166.953zM166.952 329.078c89.54 0 162.126-72.586 162.126-162.126 0-89.54-72.586-162.126-162.126-162.125-89.54 0-162.126 72.586-162.125 162.125 0 89.54 72.586 162.126 162.125 162.126z" data-fill-palette-color="tertiary" fill="#ffffff" stroke="transparent"></path><ellipse rx="160.27418187383762" ry="160.27418187383762" cx="166.95227278524752" cy="166.95227278524752" fill="#ffffff" stroke="transparent" stroke-width="0" fill-opacity="1" data-fill-palette-color="tertiary"></ellipse></g><g transform="matrix(1,0,0,1,80.98732914941621,71.17305217166896)"><svg viewBox="0 0 171.9298872716626 191.55844122715712" height="191.55844122715712" width="171.9298872716626"><g><svg viewBox="0 0 171.9298872716626 191.55844122715712" height="191.55844122715712" width="171.9298872716626"><g><svg viewBox="0 0 213.1584412271571 237.49389581909392" height="191.55844122715712" width="171.9298872716626"><g transform="matrix(1,0,0,1,0,144.3667376644848)"><svg viewBox="0 0 213.1584412271571 93.12715815460913" height="93.12715815460913" width="213.1584412271571"><g id="textblocktransform"><svg viewBox="0 0 213.1584412271571 93.12715815460913" height="93.12715815460913" width="213.1584412271571" id="textblock"><g><svg viewBox="0 0 213.1584412271571 66.35577142451989" height="66.35577142451989" width="213.1584412271571"><g transform="matrix(1,0,0,1,0,0)"><svg width="213.1584412271571" viewBox="2.1 -35.64 151.03 47.02" height="66.35577142451989" data-palette-color="#fafafa"><path d="M2.1-1.12L2.1-1.12Q2.1-1.68 2.2-2.34L2.2-2.34Q2.27-2.91 2.43-3.63 2.59-4.35 2.91-5.13L2.91-5.13Q3.98-4.71 5.15-4.39L5.15-4.39Q6.15-4.13 7.32-3.89 8.5-3.66 9.64-3.66L9.64-3.66Q10.67-3.66 11.55-3.74 12.43-3.81 13.07-4.14 13.72-4.47 14.09-5.14 14.45-5.81 14.45-7.01L14.45-7.01Q14.45-8.45 13.56-9.28 12.67-10.11 10.47-10.52L10.47-10.52Q8.2-10.96 6.65-11.69 5.1-12.43 4.14-13.39 3.17-14.36 2.75-15.55 2.32-16.75 2.32-18.12L2.32-18.12Q2.32-20.17 2.98-21.61 3.64-23.05 4.9-23.94 6.15-24.83 8.02-25.23 9.89-25.63 12.3-25.63L12.3-25.63Q13.99-25.63 15.3-25.4 16.6-25.17 17.48-24.9L17.48-24.9Q18.51-24.58 19.26-24.17L19.26-24.17Q19.19-23.63 18.99-23L18.99-23Q18.82-22.46 18.54-21.78 18.26-21.09 17.8-20.39L17.8-20.39Q17.14-20.78 16.28-21.07L16.28-21.07Q15.55-21.34 14.53-21.55 13.5-21.75 12.18-21.75L12.18-21.75Q11.16-21.75 10.29-21.66 9.42-21.56 8.8-21.22 8.18-20.87 7.84-20.18 7.5-19.48 7.5-18.29L7.5-18.29Q7.5-17.7 7.65-17.22 7.81-16.75 8.29-16.36 8.76-15.97 9.63-15.64 10.5-15.31 11.94-14.99L11.94-14.99Q14.18-14.5 15.69-13.87 17.19-13.23 18.08-12.33 18.97-11.43 19.35-10.22 19.73-9.01 19.73-7.35L19.73-7.35Q19.73-5.57 19.17-4.13 18.6-2.69 17.41-1.66 16.21-0.63 14.33-0.07 12.45 0.49 9.79 0.49L9.79 0.49Q8.08 0.49 6.68 0.24 5.27 0 4.25-0.32L4.25-0.32Q3.05-0.66 2.1-1.12ZM26.68-6.98L26.68-21.17 23.48-21.17Q23.46-21.44 23.43-21.75L23.43-21.75Q23.41-22.02 23.4-22.39 23.39-22.75 23.39-23.19L23.39-23.19Q23.39-23.63 23.41-24.01 23.43-24.39 23.48-24.95L23.48-24.95 26.68-24.95 26.68-28.83 29.49-32.01 31.66-32.01 31.66-24.95 38.57-24.95Q38.62-24.71 38.66-24.37 38.69-24.02 38.69-23.71L38.69-23.71Q38.69-23.14 38.58-22.68 38.47-22.22 38.35-21.88L38.35-21.88Q38.21-21.48 38.01-21.17L38.01-21.17 31.66-21.17 31.66-7.01Q31.66-5.22 32.26-4.42 32.86-3.61 34.18-3.61L34.18-3.61Q34.74-3.61 35.36-3.75 35.98-3.88 36.55-4.08L36.55-4.08Q37.18-4.3 37.84-4.57L37.84-4.57Q38.33-3.93 38.61-3.32 38.89-2.71 39.01-2.22L39.01-2.22Q39.16-1.66 39.18-1.17L39.18-1.17Q38.5-0.71 37.64-0.34L37.64-0.34Q36.89-0.02 35.84 0.23 34.79 0.49 33.42 0.49L33.42 0.49Q31.52 0.49 30.23 0.01 28.95-0.46 28.16-1.4 27.37-2.34 27.02-3.75 26.68-5.15 26.68-6.98L26.68-6.98ZM41.94-7.13L41.94-7.13Q41.94-9.16 42.52-10.57 43.11-11.99 44.25-12.89 45.38-13.79 47-14.25 48.63-14.7 50.73-14.82L50.73-14.82 56.17-15.11 56.17-17.07Q56.17-18.38 55.94-19.24 55.71-20.09 55.17-20.61 54.63-21.12 53.74-21.33 52.85-21.53 51.53-21.53L51.53-21.53Q50.21-21.53 49.03-21.24 47.85-20.95 46.97-20.61L46.97-20.61Q45.92-20.19 45.04-19.68L45.04-19.68Q44.5-20.43 44.18-21.13 43.87-21.83 43.7-22.39L43.7-22.39Q43.48-23.02 43.4-23.61L43.4-23.61Q44.58-24.19 45.92-24.63L45.92-24.63Q47.09-25.02 48.62-25.34 50.14-25.66 51.83-25.66L51.83-25.66Q54.61-25.66 56.44-25.17 58.27-24.68 59.36-23.69 60.44-22.71 60.87-21.2 61.3-19.7 61.3-17.65L61.3-17.65 61.3-4.03 63.35-1.54 63.35 0 58.83 0 56.95-2.17 56.07-2.17Q55.95-2.05 55.43-1.62 54.9-1.2 54.08-0.72 53.27-0.24 52.23 0.12 51.19 0.49 50.02 0.49L50.02 0.49Q48.19 0.49 46.7-0.06 45.21-0.61 44.15-1.62 43.09-2.64 42.51-4.04 41.94-5.44 41.94-7.13ZM47.26-7.57L47.26-7.57Q47.26-6.45 47.58-5.7 47.9-4.96 48.47-4.52 49.04-4.08 49.86-3.91 50.68-3.74 51.68-3.74L51.68-3.74Q52.61-3.74 53.43-3.97 54.24-4.2 54.85-4.49L54.85-4.49Q55.56-4.81 56.17-5.25L56.17-5.25 56.17-11.82 51.26-11.5Q50.12-11.43 49.35-11.11 48.58-10.79 48.12-10.28 47.65-9.77 47.46-9.07 47.26-8.37 47.26-7.57ZM66.55-25.22L71.04-25.22 73.55-22.58Q73.82-23.19 74.25-23.74 74.68-24.29 75.25-24.71 75.82-25.12 76.54-25.37 77.26-25.61 78.12-25.61L78.12-25.61Q78.83-25.61 79.48-25.5 80.14-25.39 80.93-25.12L80.93-25.12Q80.95-25.07 80.99-24.73 81.02-24.39 81.02-23.88L81.02-23.88Q81.02-23.49 80.97-22.96 80.93-22.44 80.82-21.89 80.71-21.34 80.5-20.8 80.29-20.26 79.97-19.87L79.97-19.87 79.51-19.75Q79.02-20 78.42-20.17 77.82-20.34 77.19-20.34L77.19-20.34Q76.21-20.34 75.55-20.2 74.89-20.07 74.48-19.92L74.48-19.92Q73.99-19.75 73.7-19.53L73.7-19.53 73.7 0 68.47 0 68.47-20.48 66.55-22.46 66.55-25.22ZM86.17-6.98L86.17-21.17 82.97-21.17Q82.95-21.44 82.92-21.75L82.92-21.75Q82.9-22.02 82.89-22.39 82.88-22.75 82.88-23.19L82.88-23.19Q82.88-23.63 82.9-24.01 82.92-24.39 82.97-24.95L82.97-24.95 86.17-24.95 86.17-28.83 88.98-32.01 91.15-32.01 91.15-24.95 98.06-24.95Q98.11-24.71 98.15-24.37 98.18-24.02 98.18-23.71L98.18-23.71Q98.18-23.14 98.07-22.68 97.96-22.22 97.84-21.88L97.84-21.88Q97.7-21.48 97.5-21.17L97.5-21.17 91.15-21.17 91.15-7.01Q91.15-5.22 91.75-4.42 92.35-3.61 93.67-3.61L93.67-3.61Q94.23-3.61 94.85-3.75 95.47-3.88 96.03-4.08L96.03-4.08Q96.67-4.3 97.33-4.57L97.33-4.57Q97.82-3.93 98.1-3.32 98.38-2.71 98.5-2.22L98.5-2.22Q98.65-1.66 98.67-1.17L98.67-1.17Q97.99-0.71 97.13-0.34L97.13-0.34Q96.38-0.02 95.33 0.23 94.28 0.49 92.91 0.49L92.91 0.49Q91.01 0.49 89.72 0.01 88.44-0.46 87.65-1.4 86.86-2.34 86.51-3.75 86.17-5.15 86.17-6.98L86.17-6.98ZM106.12-29.17L106.12-29.17Q105.43-29.17 104.83-29.42 104.24-29.66 103.78-30.08 103.33-30.49 103.06-31.04 102.8-31.59 102.8-32.23L102.8-32.23Q102.8-32.89 103.06-33.45 103.33-34.01 103.78-34.42 104.24-34.84 104.83-35.07 105.43-35.3 106.12-35.3L106.12-35.3Q106.8-35.3 107.41-35.07 108.02-34.84 108.47-34.42 108.92-34.01 109.19-33.45 109.46-32.89 109.46-32.23L109.46-32.23Q109.46-31.59 109.19-31.04 108.92-30.49 108.47-30.08 108.02-29.66 107.41-29.42 106.8-29.17 106.12-29.17ZM103.31-4.2L103.31-24.95 108.39-24.95 108.39-4.1 109.83-3.08 109.83 0 108.43 0 108.39-0.05 108.39 0Q105.97 0 104.64-0.98 103.31-1.95 103.31-4.2L103.31-4.2ZM117.61 0L117.61-21.17 114-21.17Q113.93-21.75 113.9-22.27 113.88-22.78 113.88-23.19L113.88-23.19Q113.88-23.95 113.95-24.44L113.95-24.44Q113.97-24.71 114.02-24.95L114.02-24.95 117.61-24.95 117.61-27.64Q117.61-29.17 118.09-30.63 118.56-32.08 119.55-33.19 120.54-34.3 122.06-34.97 123.57-35.64 125.67-35.64L125.67-35.64Q126.69-35.64 127.45-35.55 128.21-35.45 128.74-35.33L128.74-35.33Q129.38-35.18 129.82-35.01L129.82-35.01Q129.77-34.4 129.65-33.74L129.65-33.74Q129.53-33.18 129.29-32.46 129.06-31.74 128.67-31.01L128.67-31.01Q128.31-31.1 127.87-31.2L127.87-31.2Q127.5-31.27 127.01-31.35 126.52-31.42 126.03-31.42L126.03-31.42Q124.37-31.42 123.56-30.51 122.74-29.59 122.74-27.49L122.74-27.49 122.74-24.95 128.23-24.95Q128.26-24.85 128.28-24.71L128.28-24.71Q128.31-24.58 128.33-24.4 128.35-24.22 128.35-23.97L128.35-23.97Q128.35-23.49 128.22-22.78 128.09-22.07 127.65-21.17L127.65-21.17 122.74-21.17 122.74 0 117.61 0ZM137.68 0L130.18-24.95 135.68-24.95 140.44-6.71 141.49-1.83 142.56-6.71 147.47-24.95 153.13-24.95 142.02 11.38 136.73 11.38 140.8 0 137.68 0Z" opacity="1" transform="matrix(1,0,0,1,0,0)" fill="#000000" class="wordmark-text-0" data-fill-palette-color="quaternary" id="text-0"></path></svg></g></svg></g><g transform="matrix(1,0,0,1,0,82.02077651933485)"><svg viewBox="0 0 213.1584412271571 11.106381635274294" height="11.106381635274294" width="213.1584412271571"><g transform="matrix(1,0,0,1,0,0)"><svg width="213.1584412271571" viewBox="2.7 -31.05 608.3399999999999 31.7" height="11.106381635274294" data-palette-color="#fafafa"><path d="M12.85-2.75L12.85-2.75 12.85-2.75Q16.2-2.75 17.93-4.28 19.65-5.8 19.65-8.2L19.65-8.2Q19.65-10.25 18.32-11.6 17-12.95 14.15-13.75L14.15-13.75 9.8-15.05Q7.7-15.7 6.15-16.73 4.6-17.75 3.78-19.28 2.95-20.8 2.95-22.85L2.95-22.85Q2.95-26.7 5.75-28.88 8.55-31.05 13.2-31.05L13.2-31.05Q15.9-31.05 18.03-30.48 20.15-29.9 21.38-29 22.6-28.1 22.6-27.1L22.6-27.1Q22.6-26.45 22.25-25.93 21.9-25.4 21.35-25.1L21.35-25.1Q20.1-26.1 17.98-26.85 15.85-27.6 13.35-27.6L13.35-27.6Q10.45-27.6 8.75-26.33 7.05-25.05 7.05-22.85L7.05-22.85Q7.05-21.1 8.28-20 9.5-18.9 12.25-18.1L12.25-18.1 15.3-17.2Q19.25-16.1 21.53-14 23.8-11.9 23.8-8.2L23.8-8.2Q23.8-4.25 20.93-1.8 18.05 0.65 12.85 0.65L12.85 0.65Q9.8 0.65 7.53-0.03 5.25-0.7 3.98-1.73 2.7-2.75 2.7-3.75L2.7-3.75Q2.7-4.6 3.23-5.18 3.75-5.75 4.45-6L4.45-6Q5.6-4.9 7.7-3.83 9.8-2.75 12.85-2.75ZM49.5-26.95L39.2-26.95 38.95-30.4 50.6-30.4Q50.75-30.2 50.9-29.75 51.05-29.3 51.05-28.8L51.05-28.8Q51.05-28 50.65-27.48 50.25-26.95 49.5-26.95L49.5-26.95ZM28.95-30.4L39.3-30.4 39.55-26.95 27.85-26.95Q27.7-27.2 27.55-27.65 27.4-28.1 27.4-28.6L27.4-28.6Q27.4-29.45 27.8-29.93 28.2-30.4 28.95-30.4L28.95-30.4ZM37.2-1.6L37.2-28.3 41.25-28.3 41.25-0.1Q41 0 40.47 0.13 39.95 0.25 39.4 0.25L39.4 0.25Q38.3 0.25 37.75-0.2 37.2-0.65 37.2-1.6L37.2-1.6ZM67.2-27.25L67.2-27.25 67-27.25Q66.25-25.15 65.22-22.25 64.2-19.35 63.12-16.28 62.05-13.2 61.09-10.55L61.09-10.55 60.84-9.8Q60.55-8.9 60.09-7.55 59.65-6.2 59.15-4.73 58.65-3.25 58.2-1.98 57.75-0.7 57.5 0.1L57.5 0.1Q57.15 0.25 56.77 0.33 56.4 0.4 55.84 0.4L55.84 0.4Q55.05 0.4 54.42-0.03 53.8-0.45 53.8-1.4L53.8-1.4Q53.8-1.85 53.95-2.33 54.09-2.8 54.3-3.35L54.3-3.35Q54.9-5.05 55.77-7.5 56.65-9.95 57.7-12.85 58.75-15.75 59.9-18.8 61.05-21.85 62.15-24.75 63.25-27.65 64.2-30.05L64.2-30.05Q64.59-30.25 65.4-30.45 66.2-30.65 67.05-30.65L67.05-30.65Q68.05-30.65 68.97-30.35 69.9-30.05 70.15-29.35L70.15-29.35Q71.34-26.45 72.72-22.78 74.09-19.1 75.5-15.13 76.9-11.15 78.17-7.4 79.45-3.65 80.45-0.6L80.45-0.6Q80.09-0.15 79.52 0.13 78.95 0.4 78.25 0.4L78.25 0.4Q77.3 0.4 76.8-0.03 76.3-0.45 75.95-1.45L75.95-1.45 73.2-9.6 72.8-11Q71.8-14.05 70.72-17.15 69.65-20.25 68.72-22.9 67.8-25.55 67.2-27.25ZM74.95-8.1L58.9-8.1 60.2-11.45 74.15-11.45 74.95-8.1ZM90.39-27.1L90.39-14.9 96.14-14.9Q99.84-14.9 101.94-16.5 104.04-18.1 104.04-21.25L104.04-21.25Q104.04-24.35 101.84-25.95 99.64-27.55 95.54-27.55L95.54-27.55Q94.19-27.55 92.82-27.43 91.44-27.3 90.39-27.1L90.39-27.1ZM96.14-11.5L96.14-11.5 86.34-11.5 86.34-28.2Q86.34-29 86.77-29.43 87.19-29.85 87.99-30.1L87.99-30.1Q89.44-30.55 91.57-30.75 93.69-30.95 95.69-30.95L95.69-30.95Q101.94-30.95 105.04-28.4 108.14-25.85 108.14-21.25L108.14-21.25Q108.14-18.3 106.79-16.1 105.44-13.9 102.79-12.7 100.14-11.5 96.14-11.5ZM104.44-1.3L96.24-12.8 99.24-14.3Q100.64-12.55 102.14-10.65 103.64-8.75 105.04-6.95 106.44-5.15 107.54-3.73 108.64-2.3 109.24-1.5L109.24-1.5Q109.04-0.65 108.37-0.15 107.69 0.35 106.99 0.35L106.99 0.35Q106.14 0.35 105.59-0.08 105.04-0.5 104.44-1.3L104.44-1.3ZM86.34-1.6L86.34-12.6 90.44-12.6 90.44-0.1Q90.14 0 89.64 0.13 89.14 0.25 88.54 0.25L88.54 0.25Q87.44 0.25 86.89-0.2 86.34-0.65 86.34-1.6L86.34-1.6ZM134.69-26.95L124.39-26.95 124.14-30.4 135.79-30.4Q135.94-30.2 136.09-29.75 136.24-29.3 136.24-28.8L136.24-28.8Q136.24-28 135.84-27.48 135.44-26.95 134.69-26.95L134.69-26.95ZM114.14-30.4L124.49-30.4 124.74-26.95 113.04-26.95Q112.89-27.2 112.74-27.65 112.59-28.1 112.59-28.6L112.59-28.6Q112.59-29.45 112.99-29.93 113.39-30.4 114.14-30.4L114.14-30.4ZM122.39-1.6L122.39-28.3 126.44-28.3 126.44-0.1Q126.19 0 125.67 0.13 125.14 0.25 124.59 0.25L124.59 0.25Q123.49 0.25 122.94-0.2 122.39-0.65 122.39-1.6L122.39-1.6ZM168.69 0.65L168.69 0.65 168.69 0.65Q164.94 0.65 162.29-0.73 159.64-2.1 158.26-4.63 156.89-7.15 156.89-10.5L156.89-10.5 156.89-14.6 160.94-14.6 160.94-10.85Q160.94-6.85 163.16-4.83 165.39-2.8 168.69-2.8L168.69-2.8Q171.99-2.8 174.21-4.83 176.44-6.85 176.44-10.85L176.44-10.85 176.44-14.6 180.54-14.6 180.54-10.5Q180.54-7.15 179.16-4.63 177.79-2.1 175.14-0.73 172.49 0.65 168.69 0.65ZM160.94-28.8L160.94-12.55 156.89-12.55 156.89-30.3Q157.14-30.4 157.66-30.53 158.19-30.65 158.79-30.65L158.79-30.65Q159.89-30.65 160.41-30.23 160.94-29.8 160.94-28.8L160.94-28.8ZM180.54-28.8L180.54-12.55 176.44-12.55 176.44-30.3Q176.69-30.4 177.21-30.53 177.74-30.65 178.34-30.65L178.34-30.65Q179.44-30.65 179.99-30.23 180.54-29.8 180.54-28.8L180.54-28.8ZM193.43-27.1L193.43-14.25 198.28-14.25Q202.28-14.25 204.48-15.93 206.68-17.6 206.68-21L206.68-21Q206.68-24.4 204.56-25.98 202.43-27.55 198.48-27.55L198.48-27.55Q197.13-27.55 195.81-27.43 194.48-27.3 193.43-27.1L193.43-27.1ZM198.53-10.85L198.53-10.85 189.38-10.85 189.38-28.2Q189.38-29 189.81-29.43 190.23-29.85 191.03-30.1L191.03-30.1Q192.48-30.55 194.56-30.75 196.63-30.95 198.58-30.95L198.58-30.95Q204.93-30.95 207.86-28.28 210.78-25.6 210.78-21.05L210.78-21.05Q210.78-17.95 209.46-15.65 208.13-13.35 205.43-12.1 202.73-10.85 198.53-10.85ZM189.38-1.6L189.38-12.8 193.48-12.8 193.48-0.1Q193.18 0 192.68 0.13 192.18 0.25 191.58 0.25L191.58 0.25Q190.48 0.25 189.93-0.2 189.38-0.65 189.38-1.6L189.38-1.6ZM241.13-2.75L241.13-2.75 241.13-2.75Q244.48-2.75 246.2-4.28 247.93-5.8 247.93-8.2L247.93-8.2Q247.93-10.25 246.6-11.6 245.28-12.95 242.43-13.75L242.43-13.75 238.08-15.05Q235.98-15.7 234.43-16.73 232.88-17.75 232.05-19.28 231.23-20.8 231.23-22.85L231.23-22.85Q231.23-26.7 234.03-28.88 236.83-31.05 241.48-31.05L241.48-31.05Q244.18-31.05 246.3-30.48 248.43-29.9 249.65-29 250.88-28.1 250.88-27.1L250.88-27.1Q250.88-26.45 250.53-25.93 250.18-25.4 249.63-25.1L249.63-25.1Q248.38-26.1 246.25-26.85 244.13-27.6 241.63-27.6L241.63-27.6Q238.73-27.6 237.03-26.33 235.33-25.05 235.33-22.85L235.33-22.85Q235.33-21.1 236.55-20 237.78-18.9 240.53-18.1L240.53-18.1 243.58-17.2Q247.53-16.1 249.8-14 252.08-11.9 252.08-8.2L252.08-8.2Q252.08-4.25 249.2-1.8 246.33 0.65 241.13 0.65L241.13 0.65Q238.08 0.65 235.8-0.03 233.53-0.7 232.25-1.73 230.98-2.75 230.98-3.75L230.98-3.75Q230.98-4.6 231.5-5.18 232.03-5.75 232.73-6L232.73-6Q233.88-4.9 235.98-3.83 238.08-2.75 241.13-2.75ZM258.88-2.2L258.88-18.3 262.93-18.3 262.93-0.4Q262.73-0.35 262.18-0.18 261.63 0 261.07 0L261.07 0Q260.07 0 259.48-0.63 258.88-1.25 258.88-2.2L258.88-2.2ZM262.93-30L262.93-12.4 258.88-12.45 258.88-28.2Q258.88-29.2 259.48-29.8 260.07-30.4 261.07-30.4L261.07-30.4Q261.63-30.4 262.18-30.25 262.73-30.1 262.93-30L262.93-30ZM275.03-13.9L261.07-13.9 261.07-17.3 276.13-17.3Q276.28-17.1 276.43-16.65 276.57-16.2 276.57-15.7L276.57-15.7Q276.57-14.9 276.18-14.4 275.78-13.9 275.03-13.9L275.03-13.9ZM276.82 0L261.07 0 261.07-3.4 277.93-3.4Q278.07-3.2 278.23-2.78 278.38-2.35 278.38-1.8L278.38-1.8Q278.38-1 277.98-0.5 277.57 0 276.82 0L276.82 0ZM276.57-26.95L261.07-26.95 261.07-30.4 277.68-30.4Q277.82-30.2 277.98-29.75 278.13-29.3 278.13-28.8L278.13-28.8Q278.13-28 277.73-27.48 277.32-26.95 276.57-26.95L276.57-26.95ZM300.47-1.6L300.47-18.15 304.52-18.15 304.52-0.1Q304.27 0 303.77 0.13 303.27 0.25 302.67 0.25L302.67 0.25Q301.57 0.25 301.02-0.2 300.47-0.65 300.47-1.6L300.47-1.6ZM304.52-28.8L304.52-14.8 300.47-14.8 300.47-30.3Q300.72-30.4 301.25-30.53 301.77-30.65 302.37-30.65L302.37-30.65Q303.47-30.65 304-30.23 304.52-29.8 304.52-28.8L304.52-28.8ZM313.52-1.55L313.52-26.95 316.92-27.25Q317.12-25.7 317.27-23.6 317.42-21.5 317.49-19.28 317.57-17.05 317.57-15.05L317.57-15.05 317.57-0.1Q317.32 0 316.79 0.13 316.27 0.25 315.72 0.25L315.72 0.25Q314.62 0.25 314.07-0.18 313.52-0.6 313.52-1.55L313.52-1.55ZM337.62-28.85L337.62-3.45 334.17-3.15Q333.67-7.35 333.59-11.73 333.52-16.1 333.52-20.2L333.52-20.2 333.52-30.3Q333.82-30.4 334.32-30.53 334.82-30.65 335.42-30.65L335.42-30.65Q336.52-30.65 337.07-30.23 337.62-29.8 337.62-28.85L337.62-28.85ZM333.87-4L337.62-4.95 337.62-5.15 337.62-0.55Q337.17-0.2 336.47 0.05 335.77 0.3 334.92 0.3L334.92 0.3Q333.72 0.3 332.87-0.18 332.02-0.65 331.32-1.9L331.32-1.9 321.82-17.9Q321.07-19.25 320.17-20.88 319.27-22.5 318.47-23.98 317.67-25.45 317.22-26.4L317.22-26.4 313.52-25.45 313.52-29.8Q313.92-30.2 314.64-30.45 315.37-30.7 316.22-30.7L316.22-30.7Q317.42-30.7 318.27-30.23 319.12-29.75 319.82-28.5L319.82-28.5 329.37-12.5Q330.17-11.15 331.04-9.53 331.92-7.9 332.67-6.43 333.42-4.95 333.87-4L333.87-4ZM359.42-0.4L359.42-0.4 359.42-0.4Q359.17-0.2 358.47 0.03 357.77 0.25 356.92 0.25L356.92 0.25Q355.97 0.25 355.22-0.03 354.47-0.3 354.22-0.85L354.22-0.85Q353.42-2.4 352.34-5 351.27-7.6 350.04-10.83 348.82-14.05 347.62-17.43 346.42-20.8 345.39-23.98 344.37-27.15 343.62-29.6L343.62-29.6Q343.92-30 344.52-30.35 345.12-30.7 345.87-30.7L345.87-30.7Q346.82-30.7 347.27-30.25 347.72-29.8 348.02-28.9L348.02-28.9Q350.22-22.4 352.29-16.25 354.37-10.1 356.82-3.85L356.82-3.85 357.02-3.85Q358.47-7.65 360.04-12.08 361.62-16.5 363.09-21.2 364.57-25.9 365.72-30.35L365.72-30.35Q366.07-30.55 366.49-30.63 366.92-30.7 367.42-30.7L367.42-30.7Q368.32-30.7 368.87-30.25 369.42-29.8 369.42-28.9L369.42-28.9Q369.42-28.15 368.87-26.1 368.32-24.05 367.39-21.25 366.47-18.45 365.37-15.35 364.27-12.25 363.12-9.28 361.97-6.3 361.02-3.98 360.07-1.65 359.42-0.4ZM375.66-2.2L375.66-18.3 379.71-18.3 379.71-0.4Q379.51-0.35 378.96-0.18 378.41 0 377.86 0L377.86 0Q376.86 0 376.26-0.63 375.66-1.25 375.66-2.2L375.66-2.2ZM379.71-30L379.71-12.4 375.66-12.45 375.66-28.2Q375.66-29.2 376.26-29.8 376.86-30.4 377.86-30.4L377.86-30.4Q378.41-30.4 378.96-30.25 379.51-30.1 379.71-30L379.71-30ZM391.81-13.9L377.86-13.9 377.86-17.3 392.91-17.3Q393.06-17.1 393.21-16.65 393.36-16.2 393.36-15.7L393.36-15.7Q393.36-14.9 392.96-14.4 392.56-13.9 391.81-13.9L391.81-13.9ZM393.61 0L377.86 0 377.86-3.4 394.71-3.4Q394.86-3.2 395.01-2.78 395.16-2.35 395.16-1.8L395.16-1.8Q395.16-1 394.76-0.5 394.36 0 393.61 0L393.61 0ZM393.36-26.95L377.86-26.95 377.86-30.4 394.46-30.4Q394.61-30.2 394.76-29.75 394.91-29.3 394.91-28.8L394.91-28.8Q394.91-28 394.51-27.48 394.11-26.95 393.36-26.95L393.36-26.95ZM410.61-2.75L410.61-2.75 410.61-2.75Q413.96-2.75 415.69-4.28 417.41-5.8 417.41-8.2L417.41-8.2Q417.41-10.25 416.09-11.6 414.76-12.95 411.91-13.75L411.91-13.75 407.56-15.05Q405.46-15.7 403.91-16.73 402.36-17.75 401.54-19.28 400.71-20.8 400.71-22.85L400.71-22.85Q400.71-26.7 403.51-28.88 406.31-31.05 410.96-31.05L410.96-31.05Q413.66-31.05 415.79-30.48 417.91-29.9 419.14-29 420.36-28.1 420.36-27.1L420.36-27.1Q420.36-26.45 420.01-25.93 419.66-25.4 419.11-25.1L419.11-25.1Q417.86-26.1 415.74-26.85 413.61-27.6 411.11-27.6L411.11-27.6Q408.21-27.6 406.51-26.33 404.81-25.05 404.81-22.85L404.81-22.85Q404.81-21.1 406.04-20 407.26-18.9 410.01-18.1L410.01-18.1 413.06-17.2Q417.01-16.1 419.29-14 421.56-11.9 421.56-8.2L421.56-8.2Q421.56-4.25 418.69-1.8 415.81 0.65 410.61 0.65L410.61 0.65Q407.56 0.65 405.29-0.03 403.01-0.7 401.74-1.73 400.46-2.75 400.46-3.75L400.46-3.75Q400.46-4.6 400.99-5.18 401.51-5.75 402.21-6L402.21-6Q403.36-4.9 405.46-3.83 407.56-2.75 410.61-2.75ZM447.26-26.95L436.96-26.95 436.71-30.4 448.36-30.4Q448.51-30.2 448.66-29.75 448.81-29.3 448.81-28.8L448.81-28.8Q448.81-28 448.41-27.48 448.01-26.95 447.26-26.95L447.26-26.95ZM426.71-30.4L437.06-30.4 437.31-26.95 425.61-26.95Q425.46-27.2 425.31-27.65 425.16-28.1 425.16-28.6L425.16-28.6Q425.16-29.45 425.56-29.93 425.96-30.4 426.71-30.4L426.71-30.4ZM434.96-1.6L434.96-28.3 439.01-28.3 439.01-0.1Q438.76 0 438.23 0.13 437.71 0.25 437.16 0.25L437.16 0.25Q436.06 0.25 435.51-0.2 434.96-0.65 434.96-1.6L434.96-1.6ZM481.75-15.2L481.75-15.2 481.75-15.2Q481.75-10 479.86-6.48 477.95-2.95 474.68-1.15 471.41 0.65 467.25 0.65L467.25 0.65Q463.16 0.65 459.86-1.15 456.56-2.95 454.66-6.48 452.75-10 452.75-15.2L452.75-15.2Q452.75-20.4 454.7-23.93 456.66-27.45 459.93-29.25 463.2-31.05 467.25-31.05L467.25-31.05Q471.36-31.05 474.63-29.25 477.91-27.45 479.83-23.93 481.75-20.4 481.75-15.2ZM477.61-15.2L477.61-15.2 477.61-15.2Q477.61-21.15 474.78-24.38 471.95-27.6 467.25-27.6L467.25-27.6Q462.61-27.6 459.78-24.38 456.95-21.15 456.95-15.2L456.95-15.2Q456.95-9.25 459.75-6.03 462.56-2.8 467.25-2.8L467.25-2.8Q472-2.8 474.81-6.03 477.61-9.25 477.61-15.2ZM493-27.1L493-14.9 498.75-14.9Q502.45-14.9 504.55-16.5 506.65-18.1 506.65-21.25L506.65-21.25Q506.65-24.35 504.45-25.95 502.25-27.55 498.15-27.55L498.15-27.55Q496.8-27.55 495.43-27.43 494.05-27.3 493-27.1L493-27.1ZM498.75-11.5L498.75-11.5 488.95-11.5 488.95-28.2Q488.95-29 489.38-29.43 489.8-29.85 490.6-30.1L490.6-30.1Q492.05-30.55 494.18-30.75 496.3-30.95 498.3-30.95L498.3-30.95Q504.55-30.95 507.65-28.4 510.75-25.85 510.75-21.25L510.75-21.25Q510.75-18.3 509.4-16.1 508.05-13.9 505.4-12.7 502.75-11.5 498.75-11.5ZM507.05-1.3L498.85-12.8 501.85-14.3Q503.25-12.55 504.75-10.65 506.25-8.75 507.65-6.95 509.05-5.15 510.15-3.73 511.25-2.3 511.85-1.5L511.85-1.5Q511.65-0.65 510.98-0.15 510.3 0.35 509.6 0.35L509.6 0.35Q508.75 0.35 508.2-0.08 507.65-0.5 507.05-1.3L507.05-1.3ZM488.95-1.6L488.95-12.6 493.05-12.6 493.05-0.1Q492.75 0 492.25 0.13 491.75 0.25 491.15 0.25L491.15 0.25Q490.05 0.25 489.5-0.2 488.95-0.65 488.95-1.6L488.95-1.6ZM552.3-26.95L542-26.95 541.75-30.4 553.4-30.4Q553.55-30.2 553.7-29.75 553.85-29.3 553.85-28.8L553.85-28.8Q553.85-28 553.45-27.48 553.05-26.95 552.3-26.95L552.3-26.95ZM531.75-30.4L542.1-30.4 542.35-26.95 530.65-26.95Q530.5-27.2 530.35-27.65 530.2-28.1 530.2-28.6L530.2-28.6Q530.2-29.45 530.6-29.93 531-30.4 531.75-30.4L531.75-30.4ZM540-1.6L540-28.3 544.05-28.3 544.05-0.1Q543.8 0 543.27 0.13 542.75 0.25 542.2 0.25L542.2 0.25Q541.1 0.25 540.55-0.2 540-0.65 540-1.6L540-1.6ZM569.99-27.25L569.99-27.25 569.79-27.25Q569.04-25.15 568.02-22.25 566.99-19.35 565.92-16.28 564.84-13.2 563.89-10.55L563.89-10.55 563.64-9.8Q563.34-8.9 562.89-7.55 562.44-6.2 561.94-4.73 561.44-3.25 560.99-1.98 560.54-0.7 560.29 0.1L560.29 0.1Q559.94 0.25 559.57 0.33 559.19 0.4 558.64 0.4L558.64 0.4Q557.84 0.4 557.22-0.03 556.59-0.45 556.59-1.4L556.59-1.4Q556.59-1.85 556.74-2.33 556.89-2.8 557.09-3.35L557.09-3.35Q557.69-5.05 558.57-7.5 559.44-9.95 560.49-12.85 561.54-15.75 562.69-18.8 563.84-21.85 564.94-24.75 566.04-27.65 566.99-30.05L566.99-30.05Q567.39-30.25 568.19-30.45 568.99-30.65 569.84-30.65L569.84-30.65Q570.84-30.65 571.77-30.35 572.69-30.05 572.94-29.35L572.94-29.35Q574.14-26.45 575.52-22.78 576.89-19.1 578.29-15.13 579.69-11.15 580.97-7.4 582.24-3.65 583.24-0.6L583.24-0.6Q582.89-0.15 582.32 0.13 581.74 0.4 581.04 0.4L581.04 0.4Q580.09 0.4 579.59-0.03 579.09-0.45 578.74-1.45L578.74-1.45 575.99-9.6 575.59-11Q574.59-14.05 573.52-17.15 572.44-20.25 571.52-22.9 570.59-25.55 569.99-27.25ZM577.74-8.1L561.69-8.1 562.99-11.45 576.94-11.45 577.74-8.1ZM605.99-1.3L592.29-15.5 595.44-17.5Q600.74-12.4 604.57-8.4 608.39-4.4 611.04-2L611.04-2Q610.99-0.9 610.39-0.28 609.79 0.35 608.89 0.35L608.89 0.35Q608.04 0.35 607.37-0.15 606.69-0.65 605.99-1.3L605.99-1.3ZM608.24-26.15L595.99-14.1 591.94-15 606.99-30.6Q608.29-30.55 608.94-29.95 609.59-29.35 609.59-28.55L609.59-28.55Q609.59-27.9 609.27-27.33 608.94-26.75 608.24-26.15L608.24-26.15ZM589.14-1.55L589.14-18.35 593.24-18.35 593.24-0.05Q592.94 0.05 592.44 0.18 591.94 0.3 591.34 0.3L591.34 0.3Q590.24 0.3 589.69-0.15 589.14-0.6 589.14-1.55L589.14-1.55ZM593.24-28.8L593.24-15 589.14-15 589.14-30.3Q589.39-30.4 589.92-30.53 590.44-30.65 591.04-30.65L591.04-30.65Q592.14-30.65 592.69-30.23 593.24-29.8 593.24-28.8L593.24-28.8Z" opacity="1" transform="matrix(1,0,0,1,0,0)" fill="#000000" class="slogan-text-1" data-fill-palette-color="quaternary" id="text-1"></path></svg></g></svg></g></svg></g></svg></g><g transform="matrix(1,0,0,1,52.95821777307702,0)"><svg viewBox="0 0 107.24200568100308 128.70173256966984" height="128.70173256966984" width="107.24200568100308"><g><svg xmlns="http://www.w3.org/2000/svg" xml:space="preserve" version="1.0" viewBox="8.337 0 83.326 100" x="0" y="0" height="128.70173256966984" width="107.24200568100308" class="icon-icon-0" data-fill-palette-color="quaternary" id="icon-0"><path d="M41.665 64.579a6.246 6.246 0 0 0-6.25-6.25 6.245 6.245 0 0 0-6.242 6.25v22.913h12.492zM62.5 39.539a6.251 6.251 0 0 0-12.5 0v47.953h12.5zM83.327 14.583a6.246 6.246 0 0 0-6.25-6.25 6.245 6.245 0 0 0-6.242 6.25v72.909h12.492z" fill="#000000" data-fill-palette-color="quaternary"></path><path d="M20.835 87.5V0H8.337v100h83.326V87.5z" fill="#000000" data-fill-palette-color="quaternary"></path></svg></g></svg></g><g></g></svg></g></svg></g></svg></g></svg></g><defs></defs></svg><rect width="333.90454557049503" height="333.90454557049503" fill="none" stroke="none" visibility="hidden"></rect></g></svg></g></svg>