<?xml version="1.0" standalone="no"?>
<!DOCTYPE svg PUBLIC "-//W3C//DTD SVG 20010904//EN"
 "http://www.w3.org/TR/2001/REC-SVG-20010904/DTD/svg10.dtd">
<svg version="1.0" xmlns="http://www.w3.org/2000/svg"
 width="2000.000000pt" height="2000.000000pt" viewBox="0 0 2000.000000 2000.000000"
 preserveAspectRatio="xMidYMid meet">

<g transform="translate(0.000000,2000.000000) scale(0.100000,-0.100000)"
fill="#000000" stroke="none">
<path d="M9710 19994 c-734 -26 -1431 -120 -2097 -284 -2241 -552 -4212 -1856
-5611 -3712 -605 -803 -1097 -1723 -1435 -2679 -405 -1145 -602 -2430 -558
-3632 16 -450 39 -710 96 -1113 250 -1752 960 -3399 2069 -4794 390 -490 897
-1012 1386 -1426 1002 -848 2210 -1510 3460 -1899 2081 -647 4339 -597 6375
140 1179 427 2249 1060 3210 1901 319 279 781 753 1071 1100 1992 2382 2757
5549 2078 8602 -340 1529 -1063 2993 -2078 4206 -292 349 -754 823 -1071 1100
-678 593 -1380 1064 -2170 1456 -1203 597 -2466 933 -3835 1019 -168 11 -737
20 -890 15z m845 -285 c1910 -105 3746 -776 5280 -1929 582 -437 1128 -952
1591 -1500 844 -999 1483 -2163 1864 -3398 425 -1377 540 -2815 339 -4251
-179 -1278 -617 -2515 -1286 -3631 -1101 -1836 -2773 -3252 -4784 -4054 -1446
-576 -3115 -791 -4694 -606 -1442 170 -2807 651 -4035 1423 -841 528 -1618
1202 -2256 1957 -1096 1297 -1833 2852 -2139 4509 -252 1371 -205 2810 134
4153 275 1087 723 2093 1348 3027 1309 1955 3294 3378 5559 3985 999 268 2030
373 3079 315z"/>
<path d="M9609 19590 c-1083 -47 -2123 -266 -3114 -655 -1701 -668 -3179
-1812 -4258 -3292 -1431 -1965 -2059 -4397 -1761 -6823 340 -2773 1881 -5263
4219 -6817 1317 -875 2840 -1414 4400 -1557 450 -42 1098 -53 1475 -27 895 62
1634 202 2415 458 2291 750 4227 2347 5402 4458 627 1125 1026 2387 1157 3655
64 617 68 1288 10 1915 -235 2561 -1516 4943 -3534 6568 -1472 1186 -3248
1909 -5110 2081 -399 37 -935 52 -1301 36z m696 -4319 c146 -252 265 -467 265
-479 0 -42 -34 -52 -177 -52 l-133 0 0 -178 0 -178 -62 7 c-79 10 -375 12
-422 3 l-36 -6 0 176 0 176 -132 0 c-73 0 -138 4 -144 8 -6 4 -16 17 -22 28
-14 27 -31 -5 273 518 159 273 256 431 269 436 11 4 28 5 38 2 10 -2 123 -185
283 -461z m-1953 -566 c496 -134 528 -145 528 -183 0 -8 -45 -61 -100 -116
l-100 -102 121 -119 120 -120 -29 -25 c-16 -14 -68 -58 -115 -98 -47 -41 -118
-111 -159 -158 l-73 -84 -117 117 -118 118 -98 -98 c-53 -53 -104 -97 -113
-97 -9 0 -24 9 -33 19 -15 17 -286 990 -286 1028 0 28 21 53 45 53 13 0 250
-61 527 -135z m3860 118 c10 -9 18 -21 18 -26 0 -31 -276 -1021 -288 -1033
-29 -30 -56 -15 -152 81 l-95 95 -130 -130 -131 -131 -47 59 c-62 79 -187 203
-262 260 -33 25 -62 47 -65 49 -2 2 54 62 125 133 l129 129 -92 94 c-93 95
-110 129 -79 155 15 13 991 280 1026 281 14 1 33 -6 43 -16z m-1973 -838 c132
-26 236 -62 366 -126 365 -181 640 -520 740 -915 85 -340 45 -691 -116 -1005
-199 -386 -547 -648 -983 -741 -132 -28 -377 -30 -512 -5 -588 109 -1048 574
-1149 1162 -22 127 -22 338 -1 467 72 440 354 827 752 1030 155 80 295 124
465 148 92 13 339 4 438 -15z m-2391 -811 c21 -14 22 -22 22 -155 l0 -139 153
0 152 0 0 -260 0 -259 -150 -3 -150 -3 -5 -143 c-5 -150 -9 -162 -55 -161 -25
0 -914 518 -928 540 -28 45 -14 54 449 324 418 243 470 272 484 274 3 1 16 -6
28 -15z m4588 -127 c682 -396 675 -391 681 -416 3 -13 1 -31 -4 -40 -12 -19
47 16 -696 -415 -119 -69 -225 -126 -235 -126 -43 1 -47 13 -52 162 l-5 143
-171 3 -171 2 1 198 c0 108 -3 225 -7 260 l-8 62 181 0 180 0 0 139 c0 133 1
141 22 155 12 9 30 14 39 11 9 -3 120 -65 245 -138z m-741 -1737 c6 0 51 41
100 90 49 50 97 90 106 90 32 0 48 -12 58 -43 44 -136 270 -1004 265 -1019
-14 -46 -22 -45 -550 97 -278 75 -512 139 -520 142 -8 3 -17 16 -20 30 -6 22
7 39 97 129 l104 104 -117 118 -117 117 103 97 c57 54 137 138 177 188 l73 90
116 -115 c63 -63 120 -115 125 -115z m-3072 82 c58 -70 201 -200 253 -232 13
-8 24 -17 24 -20 0 -3 -47 -52 -105 -110 l-105 -104 95 -97 c52 -53 95 -103
95 -111 0 -45 -26 -54 -543 -193 -483 -129 -510 -135 -533 -120 -13 8 -24 25
-24 36 0 11 61 244 135 517 135 499 147 532 188 532 5 0 54 -44 109 -97 l99
-97 107 107 107 108 18 -23 c10 -13 46 -56 80 -96z m1639 -749 l3 -158 139 -3
c145 -3 166 -8 166 -46 0 -33 -523 -928 -548 -939 -15 -7 -28 -6 -42 4 -18 12
-180 283 -502 841 -49 85 -50 89 -34 113 16 25 18 25 156 25 l140 0 0 155 0
154 158 -5 c86 -3 195 -1 242 4 47 5 93 10 102 11 16 1 18 -14 20 -156z m3112
-1883 l38 -12 -7 -46 c-3 -26 -11 -75 -16 -108 l-11 -62 -101 5 c-63 3 -118 1
-145 -6 -52 -14 -106 -61 -133 -113 -23 -45 -39 -164 -39 -290 l0 -88 180 0
180 0 0 -110 0 -110 -180 0 -180 0 2 -582 3 -583 135 -20 135 -20 3 -92 3 -93
-406 0 -406 0 3 92 3 93 118 20 117 19 0 583 0 583 -125 0 -125 0 0 110 0 110
125 0 125 0 0 133 c1 72 7 167 15 210 35 198 158 335 343 382 66 17 282 14
346 -5z m-1384 -165 l0 -155 -155 0 -155 0 0 155 0 155 155 0 155 0 0 -155z
m-5190 -360 l0 -195 175 0 175 0 0 -110 0 -110 -175 0 -176 0 3 -537 c3 -537
3 -538 26 -580 39 -74 91 -94 212 -82 41 4 91 10 111 14 l35 7 20 -94 c14 -64
17 -95 10 -99 -6 -4 -49 -15 -96 -25 -121 -25 -308 -25 -375 0 -105 40 -163
98 -208 207 -22 53 -22 63 -25 622 l-3 567 -129 0 -130 0 0 110 0 110 130 0
130 0 0 195 0 195 145 0 145 0 0 -195z m4050 0 l0 -195 175 0 175 0 0 -110 0
-110 -175 0 -176 0 3 -537 c3 -515 4 -540 23 -577 23 -47 59 -75 105 -85 33
-6 154 1 220 14 l35 6 19 -90 c10 -49 15 -94 12 -99 -12 -19 -191 -47 -306
-47 -136 0 -195 16 -270 76 -57 45 -92 100 -116 184 -15 52 -17 130 -21 608
l-5 547 -124 0 -124 0 0 110 0 110 125 0 125 0 0 188 c0 104 3 192 7 195 3 4
71 7 150 7 l143 0 0 -195z m-5245 -175 c108 -12 206 -40 295 -85 113 -57 107
-44 114 -247 l6 -178 -109 0 c-96 0 -110 2 -115 18 -3 9 -14 58 -26 108 l-21
92 -58 26 c-82 37 -152 49 -250 44 -127 -6 -223 -57 -267 -140 -19 -36 -18
-131 1 -169 32 -61 130 -109 315 -154 303 -74 481 -178 552 -322 58 -119 50
-293 -20 -412 -65 -111 -194 -196 -347 -226 -104 -22 -339 -22 -458 0 -89 15
-243 61 -323 95 l-44 19 0 191 0 190 110 0 109 0 10 -37 c6 -21 18 -73 28
-115 16 -77 17 -78 57 -93 128 -47 348 -62 454 -30 176 53 229 258 97 374 -56
49 -120 75 -291 120 -327 86 -461 166 -533 320 -22 49 -26 69 -26 156 0 92 3
106 32 168 103 218 367 325 708 287z m2706 -19 c194 -50 325 -166 380 -336 9
-29 14 -175 18 -552 3 -281 9 -514 13 -518 3 -4 37 -10 75 -13 l68 -7 3 -92 3
-93 -210 0 c-241 0 -211 -17 -232 128 l-12 84 -61 -60 c-152 -148 -297 -200
-501 -181 -154 14 -240 53 -324 144 -116 128 -143 356 -61 522 47 94 121 163
232 217 143 68 204 79 482 84 l238 4 -4 126 c-4 106 -8 135 -27 174 -26 55
-84 111 -137 133 -117 49 -287 41 -410 -20 -80 -39 -72 -25 -95 -182 l-11 -83
-114 0 -114 0 0 184 0 184 34 26 c89 67 244 125 391 145 101 14 286 5 376 -18z
m1816 18 c74 -13 71 -1 47 -170 l-17 -116 -143 5 c-122 4 -151 2 -190 -13 -56
-21 -117 -74 -156 -134 l-28 -45 0 -467 0 -466 118 -19 117 -19 3 -93 3 -92
-391 0 -391 0 3 92 3 93 118 20 117 19 0 578 c0 318 -3 578 -7 578 -10 0 -181
29 -210 35 -22 5 -23 10 -23 100 l0 95 250 0 c192 0 252 -3 255 -12 2 -7 9
-59 15 -116 l12 -103 33 48 c42 62 120 135 176 164 88 45 176 57 286 38z
m1863 -712 l0 -693 118 -19 117 -20 3 -93 3 -92 -391 0 -391 0 3 92 3 93 118
19 117 19 0 577 0 578 -67 11 c-38 6 -92 16 -120 22 l-53 10 0 95 0 94 270 0
270 0 0 -693z m2130 599 l0 -94 -27 -6 c-16 -3 -60 -10 -100 -16 l-72 -12 20
-51 c88 -220 312 -800 339 -875 18 -51 36 -89 40 -85 6 7 370 997 370 1007 0
2 -33 9 -72 16 -40 6 -85 13 -100 16 l-28 6 0 94 0 94 330 0 330 0 0 -94 c0
-107 8 -98 -104 -112 -55 -6 -59 -9 -73 -43 -9 -20 -157 -403 -330 -851 -172
-448 -333 -850 -356 -893 -108 -204 -273 -292 -495 -266 -48 6 -90 14 -94 17
-4 4 0 54 7 112 8 58 15 107 15 110 0 3 44 6 98 5 121 0 154 17 217 114 57 88
149 306 141 334 -3 12 -131 321 -285 687 l-278 665 -54 7 c-30 4 -69 10 -86
13 l-33 6 0 94 0 95 340 0 340 0 0 -94z m-4882 -2898 c7 -7 12 -21 12 -33 0
-12 -5 -26 -12 -33 -7 -7 -21 -12 -33 -12 -12 0 -26 5 -33 12 -7 7 -12 21 -12
33 0 12 5 26 12 33 7 7 21 12 33 12 12 0 26 -5 33 -12z m5630 -178 l2 -184
104 103 c94 93 105 102 125 92 32 -18 25 -46 -21 -89 -24 -21 -63 -57 -88 -80
l-45 -42 40 -37 c22 -21 69 -64 103 -95 51 -45 63 -61 57 -77 -4 -14 -15 -21
-33 -21 -21 0 -51 25 -134 107 l-108 108 0 -108 0 -107 -34 0 c-22 0 -36 6
-40 16 -9 22 -8 589 1 598 4 4 21 6 38 4 l30 -3 3 -185z m-9500 68 l3 -67 82
-3 c80 -3 82 -4 82 -28 0 -24 -3 -25 -80 -30 l-80 -5 0 -137 c0 -119 2 -140
18 -155 17 -17 64 -21 122 -11 32 5 32 -37 0 -58 -32 -21 -129 -15 -167 10
-45 29 -48 52 -48 312 l0 245 33 -3 32 -3 3 -67z m1190 0 l3 -68 80 0 80 0 -3
-27 c-3 -28 -4 -28 -80 -31 l-78 -3 0 -139 c0 -113 3 -142 16 -154 23 -23 61
-30 100 -18 37 11 44 8 44 -23 0 -31 -47 -49 -111 -43 -61 6 -100 33 -116 79
-13 37 -18 480 -6 493 4 4 21 6 38 4 30 -3 30 -3 33 -70z m4810 0 l3 -68 80 0
80 0 -3 -27 c-3 -28 -4 -28 -80 -31 l-78 -3 0 -139 c0 -113 3 -142 16 -154 23
-23 61 -30 100 -18 37 11 44 8 44 -23 0 -31 -47 -49 -111 -43 -61 6 -100 33
-116 79 -13 37 -18 480 -6 493 4 4 21 6 38 4 30 -3 30 -3 33 -70z m2130 0 l3
-68 78 0 c61 0 80 -3 85 -15 13 -34 -4 -44 -82 -47 l-77 -3 -3 -133 c-3 -131
-2 -133 23 -158 22 -22 33 -26 63 -21 20 3 44 8 54 12 24 9 35 -32 14 -53 -25
-25 -123 -27 -166 -4 -58 32 -60 42 -60 315 l0 248 33 -3 32 -3 3 -67z m540 0
l3 -67 82 -3 c80 -3 82 -4 82 -28 0 -24 -3 -25 -80 -30 l-80 -5 0 -137 c0
-119 2 -140 18 -155 17 -17 64 -21 122 -11 32 5 32 -37 0 -58 -32 -21 -129
-15 -167 10 -45 29 -48 52 -48 312 l0 245 33 -3 32 -3 3 -67z m-8936 -58 c46
-13 71 -45 57 -72 -9 -17 -11 -17 -42 -1 -46 24 -139 24 -166 -1 -28 -25 -27
-62 2 -80 12 -8 45 -20 72 -27 66 -16 120 -43 139 -71 9 -13 16 -43 16 -69 0
-91 -71 -136 -197 -126 -95 7 -156 52 -123 92 9 11 20 9 67 -12 68 -31 137
-28 165 7 42 51 11 92 -91 119 -91 25 -119 43 -137 87 -24 58 5 121 71 150 36
16 116 18 167 4z m816 -15 c56 -34 63 -62 60 -235 l-3 -155 -40 -20 c-57 -28
-206 -29 -252 0 -43 25 -67 76 -60 127 10 73 58 104 180 118 45 6 88 10 95 10
20 0 14 57 -11 85 -32 37 -94 43 -169 17 l-58 -20 -6 24 c-8 31 1 41 52 60 53
19 170 13 212 -11z m462 10 c6 -8 10 -22 8 -31 -2 -13 -17 -17 -68 -19 -36 -2
-77 -8 -92 -14 l-28 -11 0 -180 0 -180 -34 0 c-22 0 -36 6 -40 16 -3 9 -6 91
-6 183 0 195 6 210 88 235 63 20 156 20 172 1z m1231 4 c95 -32 139 -100 139
-219 0 -118 -45 -190 -136 -220 -35 -12 -115 -9 -161 5 -23 7 -23 6 -23 -84
l0 -91 -35 0 -35 0 0 278 c0 257 1 280 18 295 46 41 163 59 233 36z m701 -9
c32 -15 45 -45 28 -65 -10 -12 -16 -12 -44 2 -18 10 -55 17 -89 17 -50 1 -62
-3 -78 -23 -40 -49 -12 -81 91 -106 123 -30 173 -100 137 -187 -19 -46 -63
-69 -142 -75 -70 -6 -132 8 -163 37 -26 24 -27 30 -9 54 12 17 15 17 47 -2 92
-54 200 -34 200 37 0 39 -26 58 -109 81 -84 24 -114 41 -129 76 -28 61 5 139
68 162 42 14 153 10 192 -8z m444 1 c60 -27 96 -80 102 -147 5 -66 9 -65 -180
-89 -84 -11 -138 -22 -138 -29 0 -20 38 -74 63 -91 42 -27 117 -30 171 -6 54
23 66 21 66 -14 0 -33 -47 -56 -126 -63 -83 -6 -152 17 -198 68 -105 117 -58
338 82 380 47 14 115 10 158 -9z m945 -9 c60 -37 64 -49 67 -244 l4 -178 -35
0 c-23 0 -37 6 -41 16 -3 9 -6 83 -6 164 0 141 -1 150 -23 175 -28 33 -94 43
-152 22 l-40 -14 -5 -179 -5 -179 -35 0 -35 0 -3 186 c-2 181 -2 186 20 206
60 55 219 69 289 25z m231 16 c8 -7 38 -78 66 -158 28 -80 57 -161 65 -179
l14 -34 33 84 c40 104 90 256 90 274 0 17 31 28 54 19 9 -4 16 -17 16 -35 0
-33 -53 -182 -112 -316 l-41 -94 -41 3 -41 3 -46 105 c-26 58 -63 152 -83 210
-35 98 -36 105 -20 117 22 16 26 16 46 1z m726 -9 c56 -27 93 -84 100 -149 6
-61 8 -60 -180 -85 -146 -19 -149 -20 -126 -70 27 -59 129 -89 208 -60 62 23
74 23 78 2 10 -47 -78 -83 -179 -74 -81 7 -145 46 -176 108 -44 84 -29 223 30
288 56 60 165 78 245 40z m464 1 c32 -15 45 -45 28 -65 -10 -12 -16 -12 -44 2
-18 10 -55 17 -89 17 -50 1 -62 -3 -78 -23 -40 -49 -12 -81 91 -106 123 -30
173 -100 137 -187 -23 -55 -64 -73 -167 -73 -115 0 -177 35 -150 86 11 19 11
19 48 0 101 -52 202 -33 202 38 0 39 -26 58 -109 81 -84 24 -114 41 -129 76
-28 61 5 139 68 162 42 14 153 10 192 -8z m798 -2 l45 -23 44 23 c55 28 130
29 188 3 67 -31 73 -52 73 -256 l0 -176 -32 3 -33 3 -5 167 c-5 153 -7 169
-26 189 -29 29 -90 34 -138 12 l-39 -18 2 -178 2 -178 -38 3 -38 3 -5 173 c-5
157 -7 175 -24 188 -31 22 -81 27 -128 12 l-43 -15 -3 -181 -2 -182 -30 0
c-19 0 -33 7 -40 19 -13 25 -13 321 0 355 25 67 182 98 270 54z m765 3 c51
-23 91 -70 105 -122 22 -82 12 -89 -180 -114 -133 -18 -140 -19 -134 -39 12
-42 37 -68 81 -88 53 -23 108 -21 167 7 32 15 39 16 47 4 16 -25 5 -44 -41
-66 -74 -38 -190 -27 -258 24 -68 51 -97 165 -69 264 36 121 168 182 282 130z
m496 8 c88 -27 111 -93 107 -305 l-3 -129 -35 0 -35 0 -5 166 c-4 117 -9 171
-18 182 -32 38 -121 45 -187 15 l-25 -11 0 -179 0 -179 -32 3 -33 3 -3 192 -2
192 25 17 c61 40 172 55 246 33z m1407 -14 c56 -34 63 -62 60 -235 l-3 -155
-40 -20 c-56 -28 -206 -29 -251 -1 -83 50 -86 158 -6 212 33 23 56 28 170 40
60 6 62 7 62 34 0 76 -87 109 -192 72 l-58 -20 -6 24 c-8 31 1 41 52 60 53 19
170 13 212 -11z m-7678 -152 c5 -161 5 -163 33 -190 24 -25 35 -28 90 -28 109
1 107 -4 107 206 l0 180 33 -3 32 -3 3 -197 2 -197 -42 -23 c-60 -32 -206 -33
-258 -3 -63 37 -73 68 -78 241 -3 84 -2 160 2 169 4 11 16 15 38 13 l33 -3 5
-162z m2328 -56 l2 -218 -32 3 -33 3 -3 218 -2 218 32 -3 33 -3 3 -218z"/>
<path d="M9935 13385 c-250 -46 -438 -198 -532 -430 l-32 -80 -94 -5 c-123 -7
-127 -10 -127 -116 0 -100 4 -104 114 -104 l76 0 0 -45 0 -45 -79 0 c-103 0
-111 -7 -111 -104 0 -48 4 -77 13 -84 7 -6 55 -13 106 -14 l93 -3 17 -55 c36
-113 122 -253 201 -323 188 -171 466 -227 753 -152 115 30 151 46 173 80 15
22 13 29 -27 120 -27 62 -50 101 -64 107 -15 7 -50 2 -125 -18 -301 -77 -502
-22 -594 163 -43 87 -51 83 157 83 129 0 187 4 195 12 7 7 12 44 12 95 0 71
-3 84 -19 93 -12 6 -100 10 -215 10 l-196 0 0 45 0 45 193 0 c240 0 237 -1
237 105 0 105 -1 105 -212 105 -93 0 -168 4 -168 9 0 24 86 133 126 160 78 51
136 66 259 66 87 0 134 -6 223 -28 62 -15 121 -25 131 -22 22 7 101 171 101
209 0 32 -35 57 -123 85 -148 49 -319 63 -462 36z"/>
<path d="M7993 7159 c-106 -20 -202 -91 -248 -182 -32 -64 -34 -161 -6 -224
81 -178 480 -135 642 70 l39 49 0 149 0 149 -192 -1 c-106 -1 -212 -5 -235
-10z"/>
<path d="M5797 4640 c-32 -4 -66 -15 -77 -25 -26 -24 -26 -76 0 -100 25 -23
94 -30 148 -16 l42 12 0 69 c0 80 8 75 -113 60z"/>
<path d="M7463 4816 l-33 -15 0 -140 c0 -160 -1 -158 88 -167 98 -11 157 52
157 166 -1 72 -20 120 -59 145 -34 23 -115 28 -153 11z"/>
<path d="M8599 4807 c-34 -23 -51 -50 -63 -99 -6 -25 -4 -28 21 -28 16 0 71 7
123 15 52 8 98 15 103 15 12 0 8 29 -9 61 -29 58 -117 75 -175 36z"/>
<path d="M10515 4821 c-35 -16 -64 -50 -76 -91 -7 -22 -9 -43 -6 -47 7 -6 246
22 254 31 8 7 -24 71 -45 90 -24 21 -96 30 -127 17z"/>
<path d="M12543 4815 c-38 -16 -73 -68 -73 -107 0 -32 5 -33 113 -18 141 20
137 19 137 43 0 48 -60 97 -117 97 -15 -1 -43 -7 -60 -15z"/>
<path d="M14467 4640 c-32 -4 -66 -15 -77 -25 -26 -24 -26 -76 0 -100 25 -23
94 -30 148 -16 l42 12 0 69 c0 80 8 75 -113 60z"/>
</g>
</svg>
